<?xml version="1.0" standalone="no"?>
<!DOCTYPE svg PUBLIC "-//W3C//DTD SVG 20010904//EN"
 "http://www.w3.org/TR/2001/REC-SVG-20010904/DTD/svg10.dtd">
<svg version="1.0" xmlns="http://www.w3.org/2000/svg"
 width="512.000000pt" height="512.000000pt" viewBox="0 0 512.000000 512.000000"
 preserveAspectRatio="xMidYMid meet">

<g transform="translate(0.000000,512.000000) scale(0.100000,-0.100000)"
fill="#000000" stroke="none">
<path d="M1 5033 c1 -74 2 -83 10 -55 13 43 88 118 131 131 28 8 19 9 -54 10
l-88 1 1 -87z"/>
<path d="M400 5104 c177 -38 348 -171 429 -334 40 -83 70 -192 71 -257 l0 -33
1788 -2 1787 -3 75 -27 c114 -40 167 -74 256 -162 88 -88 140 -178 169 -291
30 -118 22 -200 -75 -738 -50 -276 -100 -533 -111 -572 -53 -179 -153 -340
-294 -473 -107 -101 -218 -171 -347 -219 -191 -72 -78 -67 -1570 -70 -956 -3
-1348 -7 -1348 -14 0 -6 16 -41 35 -78 94 -178 273 -302 479 -330 52 -7 456
-11 1217 -11 1006 0 1144 -2 1177 -15 152 -64 172 -273 34 -370 l-44 -30
-1196 -3 c-871 -2 -1217 0 -1272 9 -218 33 -411 131 -577 292 -145 140 -242
308 -289 495 -16 67 -70 492 -174 1382 -167 1425 -154 1345 -237 1404 -36 25
-55 30 -139 37 -124 11 -174 38 -216 118 l-28 53 0 -2431 0 -2431 718 1 c650
0 712 2 662 15 -116 31 -214 115 -271 229 -32 67 -34 74 -34 180 0 108 1 113
37 186 46 93 112 158 206 202 63 30 74 32 177 32 105 0 114 -2 180 -34 264
-130 325 -463 124 -676 -55 -59 -131 -103 -204 -121 -40 -10 146 -12 960 -12
834 0 1002 2 964 12 -111 31 -221 121 -272 222 -118 236 3 518 258 598 42 14
79 17 143 14 160 -7 288 -92 360 -237 36 -73 37 -78 37 -185 0 -106 -2 -114
-34 -180 -56 -115 -155 -199 -271 -230 -50 -13 12 -15 663 -15 l717 -1 0 2560
0 2560 -2392 -1 c-2074 0 -2384 -2 -2328 -15z"/>
<path d="M961 4023 c0 -16 44 -397 97 -848 l97 -820 1345 -3 c1510 -3 1412 -8
1565 71 149 77 267 220 314 382 11 39 59 288 107 554 80 447 86 489 75 530
-16 60 -56 111 -111 139 l-44 22 -1723 0 -1723 0 1 -27z"/>
</g>
</svg>
